{"title":"This Week - S13E17 - 2015.01.29 - 468p x264","uid":11709717,"size":521924175,"categoryP":"video","categoryS":"tv_shows","magnet":"?xt=urn:btih:d3a59ccac6d8263f40dfbcf2485d711a0b73de4f&amp;dn=This+Week+-+S13E17+-+2015.01.29+-+468p+x264&amp;tr=udp%3A%2F%2Ftracker.openbittorrent.com%3A80&amp;tr=udp%3A%2F%2Fopen.demonii.com%3A1337&amp;tr=udp%3A%2F%2Ftracker.coppersurfer.tk%3A6969&amp;tr=udp%3A%2F%2Fexodus.desync.com%3A6969","seeders":0,"leechers":0,"uploader":"rugbybill","files":3,"time":1424277865,"description":"POLITICAL: This Week\nOn: BBC 1 HD   \nDate: Thursday 29th January 2015 \nTime: 23:45 to 00:30 \n\nAndrew Neil is joined by Michael Portillo, Alan Johnson, Miranda Green and Vicky Pryce. Plus Esther Rantzen looks at being Jewish in Britain and George Zach on the Greek election. Crack open the Blue Nun and prepare to watch public service broadcasting at its best.\n\nCredits\n \nPresenter\tAndrew Neil\nPanellist\tMichael Portillo\nPanellist\tAlan Johnson\nPanellist\tMiranda Green\nPanellist\tVicky Pryce\nInterviewed Guest\tGeorge Zach\nInterviewed Guest\tEsther Rantzen\nReporter\tIsabel Hardman\nProduction Manager\tPaula Prynn\nAssistant Producer\tEd Baranski\nProducer\tAndrew Bradley\nProducer\tJames Franklin\nProducer\tArryn Moy\nDirector\tClaire Bellis\nExecutive Producer\tVicky Flind\nExecutive Producer\tSamir Shah\nAssistant Editor\tRichard Garvin\nEditor\tVicky Flind\nProduction Company\tJuniper TV\n\n\nGeneral\nComplete name                            : 2015.01.29.This.Week.webrip.468p.x264.mp4\nFormat                                   : MPEG-4\nFormat profile                           : Base Media\nCodec ID                                 : isom\nFile size                                : 497 MiB\nDuration                                 : 46mn 14s\nOverall bit rate mode                    : Constant\nOverall bit rate                         : 1 503 Kbps\n\nVideo\nID                                       : 1\nFormat                                   : AVC\nFormat/Info                              : Advanced Video Codec\nFormat profile                           : &lt;a class=&quot;__cf_email__&quot; href=&quot;/cdn-cgi/l/email-protection&quot; data-cfemail=&quot;662b070f08262a554857&quot;&gt;[email&amp;#160;protected]&lt;/a&gt;&lt;script cf-hash='f9e31' type=&quot;text/javascript&quot;&gt;\n/* &lt;![CDATA[ */!function(){try{var t=&quot;currentScript&quot;in document?document.currentScript:function(){for(var t=document.getElementsByTagName(&quot;script&quot;),e=t.length;e--;)if(t[e].getAttribute(&quot;cf-hash&quot;))return t[e]}();if(t&amp;&amp;t.previousSibling){var e,r,n,i,c=t.previousSibling,a=c.getAttribute(&quot;data-cfemail&quot;);if(a){for(e=&quot;&quot;,r=parseInt(a.substr(0,2),16),n=2;a.length-n;n+=2)i=parseInt(a.substr(n,2),16)^r,e+=String.fromCharCode(i);e=document.createTextNode(e),c.parentNode.replaceChild(e,c)}}}catch(u){}}();/* ]]&gt; */&lt;/script&gt;\nFormat settings, CABAC                   : Yes\nFormat settings, ReFrames                : 2 frames\nCodec ID                                 : avc1\nCodec ID/Info                            : Advanced Video Coding\nDuration                                 : 46mn 14s\nBit rate mode                            : Constant\nBit rate                                 : 1 404 Kbps\nWidth                                    : 832 pixels\nHeight                                   : 468 pixels\nDisplay aspect ratio                     : 16:9\nFrame rate mode                          : Constant\nFrame rate                               : 25.000 fps\nColor space                              : YUV\nChroma subsampling                       : 4:2:0\nBit depth                                : 8 bits\nScan type                                : Progressive\nBits/(Pixel*Frame)                       : 0.144\nStream size                              : 464 MiB (93%)\n\nAudio\nID                                       : 2\nFormat                                   : AAC\nFormat/Info                              : Advanced Audio Codec\nFormat profile                           : LC\nCodec ID                                 : 40\nDuration                                 : 46mn 14s\nBit rate mode                            : Constant\nBit rate                                 : 93.5 Kbps\nChannel(s)                               : 2 channels\nChannel positions                        : Front: L R\nSampling rate                            : 48.0 KHz\nCompression mode                         : Lossy\nStream size                              : 30.9 MiB (6%)","torrent":{"xt":"urn:btih:d3a59ccac6d8263f40dfbcf2485d711a0b73de4f","amp;dn":"This+Week+-+S13E17+-+2015.01.29+-+468p+x264","amp;tr":["udp%3A%2F%2Ftracker.openbittorrent.com%3A80","udp%3A%2F%2Fopen.demonii.com%3A1337","udp%3A%2F%2Ftracker.coppersurfer.tk%3A6969","udp%3A%2F%2Fexodus.desync.com%3A6969"],"infoHash":"d3a59ccac6d8263f40dfbcf2485d711a0b73de4f","infoHashBuffer":{"type":"Buffer","data":[211,165,156,202,198,216,38,63,64,223,188,242,72,93,113,26,11,115,222,79]},"announce":[],"urlList":[]}}